# Blender v2.93.3 OBJ File: ''
# www.blender.org
mtllib bridge_2.mtl
o 立方体
v -0.040000 -0.020000 0.040000
v -0.040000 0.020000 0.040000
v -0.040000 0.020000 -0.040000
v 0.040000 -0.020000 0.040000
v 0.040000 0.020000 0.040000
v 0.040000 0.020000 -0.040000
v -0.040000 -0.020000 -0.039941
v -0.040000 0.020000 -0.039941
v 0.040000 -0.020000 -0.039941
v 0.040000 0.020000 -0.039941
v -0.040000 0.019966 -0.040000
v 0.040000 0.019966 -0.040000
v -0.040000 -0.020000 0.109223
v -0.040000 -0.020000 0.039941
v -0.040000 0.020000 0.039941
v 0.040000 -0.020000 0.109223
v 0.040000 -0.020000 0.039941
v 0.040000 0.020000 0.039941
v 0.040000 0.019966 0.040000
v -0.040000 0.019966 0.040000
v -0.040000 -0.020000 -0.109223
v 0.040000 -0.020000 -0.109223
v 0.040000 0.019966 -0.040000
v -0.040000 0.019966 -0.040000
vt 0.624787 0.250000
vt 0.625000 0.249816
vt 0.625000 0.250000
vt 0.624787 0.250000
vt 0.625000 0.000000
vt 0.625000 0.000184
vt 0.624787 0.000000
vt 0.375000 0.249816
vt 0.375000 0.000184
vt 0.375000 0.000000
vt 0.625000 0.500000
vt 0.624787 0.500000
vt 0.625000 0.500184
vt 0.624787 0.500000
vt 0.375000 0.749816
vt 0.375000 0.500184
vt 0.625000 0.749816
vt 0.625000 0.750000
vt 0.624787 0.750000
vt 0.375000 0.750000
vt 0.625000 1.000000
vt 0.624787 1.000000
vt 0.125000 0.500184
vt 0.125000 0.749816
vt 0.125000 0.750000
vt 0.875000 0.749816
vt 0.875000 0.750000
vt 0.875000 0.500184
vt 0.875000 0.500000
vt 0.375000 0.000000
vt 0.625000 0.249787
vt 0.375000 0.249787
vt 0.375000 0.750000
vt 0.375000 0.500213
vt 0.625000 0.500213
vt 0.125000 0.750000
vt 0.125000 0.500213
vt 0.875000 0.500213
vt 0.875000 0.750000
vt 0.625000 0.750000
vt 0.375000 0.250000
vt 0.375000 0.000000
vt 0.625000 0.000000
vt 0.625000 0.000213
vt 0.625000 0.000213
vt 0.375000 0.750000
vt 0.375000 0.500000
vt 0.625000 0.749787
vt 0.625000 0.749787
vt 0.625000 0.750000
vt 0.125000 0.500000
vt 0.125000 0.750000
vt 0.625000 0.500000
vt 0.875000 0.500000
vt 0.875000 0.749787
vn -1.0000 0.0000 0.0000
vn 0.0000 0.0000 1.0000
vn 0.0000 0.0000 -1.0000
vn 1.0000 0.0000 0.0000
vn 0.0000 -1.0000 0.0000
vn 0.0000 1.0000 0.0000
vn 0.0000 0.8660 0.5000
vn 0.0000 0.8660 -0.5000
usemtl None
s off
f 24/1/1 8/2/1 3/3/1
f 11/4/2 8/2/2 24/1/2
f 2/5/1 15/6/1 20/7/1
f 8/2/1 7/8/1 14/9/1 15/6/1
f 14/9/1 1/10/1 20/7/1 15/6/1
f 3/3/3 6/11/3 23/12/3 24/1/3
f 23/12/4 6/11/4 10/13/4
f 12/14/2 23/12/2 10/13/2
f 17/15/4 9/16/4 10/13/4 18/17/4
f 5/18/4 19/19/4 18/17/4
f 19/19/4 4/20/4 17/15/4 18/17/4
f 19/19/2 5/18/2 2/21/2 20/22/2
f 7/23/5 9/16/5 17/15/5 14/24/5
f 4/20/5 1/25/5 14/24/5 17/15/5
f 15/26/6 2/27/6 5/18/6 18/17/6
f 18/17/6 10/13/6 8/28/6 15/26/6
f 10/13/6 6/11/6 3/29/6 8/28/6
f 13/30/1 20/31/1 1/32/1
f 16/33/4 4/34/4 19/35/4
f 16/33/5 13/36/5 1/37/5 4/34/5
f 20/38/7 13/39/7 16/40/7 19/35/7
f 21/41/1 7/42/1 8/43/1 11/44/1 24/45/1
f 9/46/4 22/47/4 23/48/4 12/49/4 10/50/4
f 21/51/5 22/47/5 9/46/5 7/52/5
f 22/53/8 21/54/8 24/55/8 23/48/8
